<svg width="295" height="424" viewBox="0 0 295 424" fill="none" xmlns="http://www.w3.org/2000/svg">
<g clip-path="url(#clip0_1_330)">
<path fill-rule="evenodd" clip-rule="evenodd" d="M191.3 20.3H213.1V15.8C213.2 15.9 213.4 15.9 213.5 16V20.4H228.4C228.3 20.5 228.1 20.7 228 20.8H213.5V37.6C213.3 37.7 213.2 37.8 213.1 38V20.8H191C191 20.7 191.1 20.6 191.2 20.5L191.3 20.3ZM669.4 366.5H666.1C666.1 366.4 666.1 366.3 666.1 366.2C666.1 366.2 666.1 366.1 666 366.1H669.2C669.3 366.2 669.3 366.3 669.4 366.5ZM648.3 388.1V395.9C648.2 396.1 648 396.4 647.9 396.6V388.4C648 388.3 648.1 388.3 648.3 388.1ZM650.1 289.7H648.7C648.7 289.6 648.8 289.4 648.8 289.3H649.4C649.6 289.4 649.9 289.5 650.1 289.7ZM627.4 366.5H608.8V371.2C608.7 371.1 608.5 371.1 608.4 371V366.5H604.7C604.8 366.4 604.8 366.2 604.8 366.1H608.3V328.1H569.2V355.9C569.1 355.9 568.9 355.9 568.8 355.9V328.1H555.7C555.7 328 555.7 327.9 555.7 327.7V327.6H568.8V321L569.2 320.9V327.6H608.3V312.1C608.4 312.2 608.6 312.2 608.7 312.3V327.5H635C635.3 327.6 635.5 327.7 635.8 327.8C635.9 327.8 635.9 327.9 636 327.9H608.8V365.9H627.5C627.5 366.2 627.4 366.4 627.4 366.5ZM641.9 289.7H634.9C634.8 289.6 634.8 289.4 634.8 289.3H642.6C642.3 289.3 642.1 289.5 641.9 289.7ZM631.7 289.7H612.2C612.1 289.5 612 289.4 611.9 289.3H630.4C630.5 289.3 630.6 289.4 630.7 289.4C631 289.4 631.4 289.5 631.7 289.7ZM608.8 303.7V304.4C608.7 304.7 608.5 305 608.4 305.2V303.4C608.5 303.5 608.6 303.5 608.8 303.7ZM633.6 289.2C633.7 289.2 633.8 289.2 633.8 289.2C633.8 289.3 633.8 289.3 633.7 289.4C633.6 289.4 633.6 289.4 633.6 289.3C633.6 289.3 633.6 289.3 633.6 289.2ZM608.8 282.3V287.7C608.7 287.7 608.5 287.6 608.4 287.6V282.6C608.5 282.5 608.7 282.4 608.8 282.3ZM625.3 136H622.6C622.5 135.9 622.5 135.7 622.4 135.6H625.5C625.5 135.7 625.4 135.8 625.3 135.9C625.4 135.9 625.4 136 625.3 136ZM608.8 164.5V168.4C608.6 168.5 608.5 168.6 608.4 168.7V164.7C608.5 164.7 608.7 164.6 608.8 164.5ZM624.9 97.6H623.7C623.6 97.5 623.5 97.3 623.4 97.2H624.9C625 97.3 624.9 97.5 624.9 97.6ZM622.4 97.6H615.1C615.2 97.4 615.2 97.3 615.3 97.2H622.5C622.5 97.3 622.4 97.5 622.4 97.6ZM644.7 59.2H637.6L637.5 59.1C637.4 59 637.3 58.9 637.1 58.8H644.8C644.8 58.9 644.8 59 644.8 59.1C644.7 59.1 644.7 59.1 644.7 59.2ZM635.4 59.2C635.6 59 635.9 58.9 636.1 58.8H608.8V44.3C608.7 44.3 608.5 44.3 608.4 44.3V58.8H569.3V50.5C569.2 50.6 569 50.6 568.9 50.7V58.8H539.2C539.1 58.9 539.1 59.1 538.9 59.2C538.5 59.4 538.1 59.2 537.9 58.8H533.2C533.2 58.8 533.2 58.8 533.2 58.9C533.2 59 533.1 59.2 533 59.3H568.9V97.3H529.8V59.6C529.6 59.5 529.5 59.5 529.4 59.4V63.7C529.4 63.8 529.4 63.8 529.4 63.9C529.4 64 529.4 64.1 529.4 64.1V97.1H490.3V59.1H522.2C522.2 58.9 522.1 58.8 522 58.7H505.3C504.9 58.8 504.6 58.8 504.2 58.7H501.6C501.5 58.7 501.3 58.7 501.2 58.7H490.3V57.9C490.2 57.9 490.2 57.9 490.1 57.9C490.1 58 490 58.2 490 58.3C490 58.4 489.9 58.4 489.9 58.5V58.7H489.7C489.5 58.9 489.2 59.1 488.9 59.1H489.8V97.1H450.7V59.1H467.7C467.7 59 467.6 58.8 467.6 58.7H450.7V56.7C450.6 56.8 450.4 56.9 450.3 56.9V58.6H447.8C447.6 58.7 447.5 58.9 447.3 59H450.2V86H450.3C450.4 86 450.4 86.1 450.4 86.2C450.4 86.3 450.3 86.3 450.3 86.4L450.2 86.5V97.2H438.8C438.9 97.3 439.1 97.5 439.2 97.6H450.2V135.6H411.1V97.8C411 97.8 410.8 97.8 410.7 97.8C410.7 97.8 410.7 97.8 410.6 97.8V135.5H371.5V115.2C371.4 114.9 371.4 114.5 371.5 114.1C371.6 113.3 371.5 112.8 371.1 112.4V135.5H361.7C361.3 135.7 360.9 135.6 360.4 135.5H356C355.7 135.6 355.4 135.7 355.1 135.8C355 135.8 354.9 135.9 354.8 135.9H371.1V173.9H332V152.4C332 152.4 331.9 152.4 331.9 152.5C331.8 152.5 331.7 152.5 331.6 152.5V174H308.3C308.4 174.1 308.4 174.3 308.4 174.4H331.7V181.6L331.8 181.8C331.9 181.9 332 182 332.1 182.1V174.4H371C371.2 174.1 371.4 173.8 371.6 173.6V136H410.7V170.9C410.8 170.8 411 170.7 411.1 170.7V136H450.2V174H414.5C414.3 174.1 414.2 174.2 414.2 174.4H450.3V212.4H416.9C417.1 212.5 417.2 212.7 417.3 212.8H450.3V222.5C450.4 222.5 450.6 222.5 450.7 222.4V212.8H489.8V240.6C489.9 240.5 490 240.4 490.1 240.3C490.2 240.3 490.2 240.2 490.3 240.2V212.8H529.4V248.5C529.5 248.5 529.7 248.6 529.8 248.6C529.8 248.6 529.9 248.6 529.9 248.7V212.8H569V215.8C569.1 215.5 569.2 215.2 569.3 214.8C569.3 214.6 569.4 214.4 569.5 214.2V212.8H570.6C570.7 212.7 570.7 212.5 570.7 212.4H569.4V207.9C569.3 207.9 569.1 207.9 569 207.9V212.5H529.9V174.5H569V181.8C569.1 181.8 569.3 181.7 569.4 181.7V174.5H579.7C579.7 174.3 579.7 174.2 579.8 174.1H569.5V136.1H590.6C590.6 136 590.5 136 590.4 135.9C590.3 135.8 590.2 135.7 590.2 135.6H569.5V97.6H603.1C603.1 97.5 603.1 97.3 603.1 97.2H569.5V59.2H608.6V93.2C608.8 93.1 608.9 93.1 609 93.2V59.2H635.4ZM569.3 295V296.5C569.2 296.5 569 296.6 568.9 296.6V294.9C569 294.9 569.1 294.9 569.3 295ZM604.8 289.7H604C604 289.6 604.1 289.6 604.1 289.5C604.1 289.4 604.2 289.4 604.3 289.4C604.6 289.4 604.7 289.5 604.8 289.7ZM571.5 289.2H573.3H573.2C572.7 289.5 572.1 289.6 571.5 289.2ZM584.3 251.3H582C581.9 251.2 581.9 251 581.8 250.9H584.2C584.2 251 584.3 251.1 584.3 251.3ZM581 251.3H580C580 251.3 579.9 251.3 579.9 251.2C579.6 251.1 579.4 250.9 579.3 250.8H581.1C581 251 580.9 251.1 581 251.3ZM572.3 251.3H571.4V251.2C571.4 251.1 571.4 250.9 571.5 250.9H572.1C572.2 251 572.3 251.1 572.4 251.1C572.4 251.1 572.3 251.2 572.3 251.3ZM569.3 255.4V256.9C569.2 257.1 569 257.3 568.9 257.4V256C569 255.8 569.1 255.6 569.3 255.4ZM569.3 265.3V267.3C569.2 267.4 569.2 267.5 569.2 267.6C569.2 267.9 569.1 268.1 568.9 268.3V265L569 265.1C569.1 265.1 569.2 265.2 569.3 265.3ZM569.3 274.4V275.9C569.2 275.9 569 275.9 568.9 275.9V274C569 274.2 569.1 274.3 569.3 274.4ZM604.4 174.4H602.6C602.7 174.2 602.9 174.1 603 174H604.2C604.3 174.1 604.4 174.3 604.4 174.4ZM569.3 202.9V204.1C569.2 204.1 569.2 204.2 569.1 204.2C569 204.2 568.9 204.3 568.9 204.3V202.5C569 202.6 569.1 202.8 569.3 202.9ZM569.3 204.9V206.9C569.1 207 569 207.2 568.9 207.3V204.6C569 204.6 569.1 204.7 569.3 204.9ZM594.9 136H591.2C591.2 135.9 591.1 135.7 591.1 135.6H594.8C594.8 135.7 594.9 135.9 594.9 136ZM542.2 289.7H541.7C541.4 289.7 541 289.7 540.7 289.7H538.9C538.8 289.7 538.7 289.6 538.6 289.5C538.5 289.4 538.5 289.3 538.4 289.3H542.4C542.2 289.4 542.2 289.5 542.2 289.7ZM548.7 251.3H533.6C533.4 251.1 533.1 251 532.9 250.9H548.9C548.7 251 548.7 251.1 548.7 251.3ZM529.8 259.4V265C529.7 264.6 529.7 264.1 529.4 263.8V259C529.5 259.1 529.6 259.2 529.7 259.3C529.6 259.3 529.7 259.3 529.8 259.4ZM529.8 271.5V279.5C529.7 279.2 529.5 278.9 529.4 278.7V270.9L529.5 271C529.5 271.2 529.6 271.3 529.8 271.5ZM529.8 174V136H568.9V174H529.8ZM529.8 135.6V97.6H568.9V135.6H529.8ZM529.8 30.8V37C529.6 37 529.5 37 529.4 37V30.7L529.8 30.8ZM528.3 251.3H525.5C525.5 251.2 525.4 251 525.4 250.9H528.4C528.4 251 528.3 251.1 528.3 251.3ZM490.2 212.4V174.4H529.3V212.4H490.2ZM490.2 174V136H529.3V174H490.2ZM490.2 135.6V97.6H529.3V135.6H490.2ZM529 59.2H527.8C527.8 59.1 527.8 59 527.8 58.9C527.8 58.9 527.8 58.8 527.9 58.8H528.4C528.6 58.9 528.8 59.1 529 59.2ZM485.2 251.3H474.1C474 251.2 473.9 251 473.8 250.9H485.4C485.4 251 485.3 251.1 485.2 251.3ZM450.7 212.4V174.4H489.8V212.4H450.7ZM450.7 174V136H489.8V174H450.7ZM450.7 135.6V97.6H489.8V135.6H450.7ZM488.5 59.2H484.3C484.3 59.1 484.4 58.9 484.4 58.8H487.7L487.8 58.9C488 59.1 488.3 59.2 488.5 59.2ZM482.9 59.2H470.6C470.6 59.1 470.7 58.9 470.7 58.8H483C483 58.9 482.9 59 482.9 59.2ZM412 328.1H411.2V329.6C411.1 329.8 410.9 329.9 410.8 330V328.1H403.5C403.5 328 403.5 327.8 403.5 327.7H410.8V309.7C410.9 309.7 411 309.6 411.1 309.6C411.1 309.6 411.2 309.6 411.2 309.5V327.8H412.2C412.1 327.8 412.1 327.9 412 328.1ZM411.2 254.3V272C411.1 272.1 410.9 272.2 410.8 272.3V254.3C410.9 254.3 411 254.3 411.2 254.3ZM413.3 212.8H411.2V248.9H411.1C411 248.9 410.8 248.9 410.7 248.9V212.9H371.6V250.9H404.7C404.8 251 404.9 251.2 404.9 251.3H371.6V289.3H395.3C395.3 289.5 395.3 289.6 395.4 289.7H371.5V327.7H385.9C385.9 327.9 385.8 328 385.7 328.1H371.5V345.3C371.4 345.4 371.2 345.6 371.1 345.7V328.1H341C341 328 340.9 327.8 340.9 327.7H371.1V289.7H337.1C337 289.6 337 289.4 336.9 289.3H371.1V251.3H332V283C331.8 282.8 331.7 282.7 331.6 282.5V272.7C331.8 272.2 331.9 271.7 331.9 271.2C331.9 270.7 331.8 270.1 331.6 269.6V251.3H292.5V266.9C292.4 266.9 292.4 266.8 292.3 266.8C292.2 266.8 292.1 266.7 292 266.7V251.3H275.4C275.3 251.2 275.2 251 275.1 250.9H292V212.9H290.4C290.4 212.8 290.4 212.6 290.4 212.5H292V206.7C292.1 206.6 292.3 206.4 292.4 206.3V212.5H331.5V197C331.6 197.1 331.8 197.1 331.9 197.2V203.2C331.8 203.3 331.8 203.3 331.7 203.4C331.5 203.6 331.6 204.3 331.9 204.4V212.5H371V210.2C371.1 210.2 371.2 210.2 371.3 210.3C371.4 210.3 371.4 210.3 371.5 210.3V212.5H410.6V183.6C410.8 183.8 410.9 183.9 411 184.1V212.5H413.3C413.3 212.5 413.2 212.6 413.2 212.7C413.3 212.6 413.3 212.7 413.3 212.8ZM436.9 97.6H428.5C428.5 97.5 428.5 97.3 428.5 97.2H436.8C436.8 97.3 436.8 97.5 436.9 97.6ZM427.2 97.6H414.3C414.3 97.4 414.3 97.3 414.2 97.2H426.5C426.7 97.3 426.9 97.5 427.2 97.6ZM411.2 92.4V94.5C411.1 94.4 410.9 94.3 410.8 94.2V92.1C410.9 92.2 411 92.3 411.2 92.4ZM450.3 35.8V34.7L450.4 34.8C450.5 35 450.5 35.6 450.3 35.8ZM406.1 174.4H385.9C386 174.3 386.1 174.1 386.2 174H406.3C406.2 174.1 406.2 174.2 406.1 174.3V174.4ZM381.2 174.4H376.8C376.9 174.3 377.1 174.1 377.2 174C377.2 174 377.2 174 377.2 173.9H380.7C381 174.2 381.1 174.3 381.2 174.4ZM371.7 185.8V198.6H371.6C371.5 198.5 371.4 198.5 371.2 198.4V185.9C371.4 185.8 371.5 185.8 371.7 185.8ZM371.7 100.3V111C371.6 111 371.4 110.9 371.3 110.9V100.1C371.4 100.2 371.5 100.2 371.7 100.3ZM332.1 250.8V212.8H371.2V250.8H332.1ZM344.8 136H342.3C342.2 136 342.1 136 342.1 135.9C342 135.9 341.9 135.9 341.9 136H332.2V142.4C332 142 331.9 141.7 331.8 141.3V136H319.8C319.9 135.8 320.1 135.7 320.2 135.6H331.7V116.9C331.8 116.4 331.8 116 332 115.5C332.2 115 332.1 114.5 332 114C331.9 113.8 332 113.6 332.1 113.5V135.5H344.8C344.8 135.6 344.8 135.7 344.8 135.8C344.8 135.9 344.8 136 344.8 136ZM332.1 147.3V151C332 151 331.8 151 331.7 150.9V149.9C331.8 149.9 331.9 149.9 332 149.9C332.1 149.9 332.1 149.6 332.1 149.5C332 149.3 331.9 149.2 331.8 149V147.6C331.8 147.5 332 147.4 332.1 147.3ZM359.8 97.6H344.2C344.5 97.5 344.9 97.3 345.2 97.2H348.2C348.2 97.3 348.2 97.4 348.2 97.4C348.4 97.4 348.4 97.3 348.5 97.2H352H361.2C360.8 97.5 360.4 97.6 360 97.6C360 97.6 359.9 97.6 359.8 97.6ZM332.1 67.3V73.2H332C331.9 73.2 331.7 73.2 331.6 73.3V67.1C331.8 67.2 332 67.3 332.1 67.3ZM292.6 250.8V212.8H331.7V250.8H292.6ZM292.6 181.1V182.4C292.5 182.2 292.4 182 292.3 181.9C292.2 181.7 292.4 181.3 292.6 181.1ZM292.6 188.9C292.5 189.3 292.3 189.6 292.2 190V193.1C292.4 193.5 292.6 193.9 292.6 194.3V188.9ZM292.6 151.3V159.5C292.5 159.5 292.3 159.5 292.2 159.5V151.4C292.3 151.3 292.4 151.3 292.6 151.3ZM292.6 38V42.9C292.5 43 292.3 43 292.2 43.1V37.8C292.3 37.8 292.5 37.9 292.6 38ZM272.6 97.6C272.6 97.6 272.5 97.6 272.5 97.5C271.8 97.3 271 97.3 270.2 97.1H253.1V59.1H282C282.1 59 282.1 58.8 282.2 58.7H253.1V27.4C253 27.3 252.8 27.3 252.7 27.2V58.8H213.6V44.8C213.5 44.8 213.4 44.8 213.3 44.8C213.2 44.8 213.2 44.8 213.1 44.8V58.7H206.1C206.1 58.7 206 58.8 205.9 58.8C205.7 58.9 205.5 59 205.3 59.1H213.1V62.5C213.3 62.5 213.4 62.4 213.5 62.3V59.1H252.6V97.1H223.6C223.6 97.2 223.6 97.3 223.7 97.4C223.7 97.5 223.7 97.5 223.7 97.6H252.6V107.3C252.7 107.2 252.7 107.1 252.8 107C252.9 106.9 252.9 106.8 253 106.7V97.6H272.6ZM213.8 328.1H213.5V328.2C213.3 328.3 213.2 328.4 213.1 328.4V328H174V366H183.7C183.7 366.1 183.7 366.3 183.6 366.4H174V402.3C173.8 402.5 173.6 402.8 173.6 403.1V366.4H160.1C160.2 366.3 160.2 366.1 160.2 366H173.6V328H161C161 327.9 160.9 327.7 160.9 327.6H173.5V289.6H135.8C135.8 289.6 135.8 289.6 135.8 289.5C135.8 289.4 135.9 289.3 135.9 289.1H173.5V253.6C173.6 253.6 173.7 253.6 173.8 253.7C173.9 253.8 173.9 253.8 174 253.9V289.2H213.1V279.7C213.2 279.8 213.4 279.8 213.5 279.9V289.2H236C236.1 289.3 236.1 289.5 236.2 289.6H213.5V327.6H214.9C214.8 327.6 214.7 327.7 214.6 327.7C214.4 327.8 214.1 327.9 213.8 328.1ZM231.3 20.8C230.9 20.7 230.5 20.6 230.1 20.5C229.5 20.4 229.1 20.4 228.6 20.7C228.4 20.8 228.3 20.8 228.1 20.9H231.3V20.8ZM179.1 404.9H174V407.1L173.6 406.9V404.9H166.4C166.2 404.8 166 404.6 165.7 404.5H168.3C168.4 404.6 168.5 404.7 168.6 404.7C168.6 404.7 168.6 404.8 168.7 404.8L168.8 404.9L168.7 404.8C168.6 404.8 168.6 404.8 168.6 404.7C168.6 404.6 168.5 404.5 168.4 404.5H173.4C173.4 404.6 173.5 404.6 173.6 404.7C173.6 404.7 173.7 404.6 173.8 404.6C173.8 404.5 173.8 404.4 173.9 404.4C173.9 404.1 174 403.8 174 403.5V404.6H178.6C178.8 404.6 178.9 404.8 179.1 404.9ZM174 407.5C173.8 407.5 173.7 407.4 173.6 407.2C173.6 407.1 173.5 407 173.5 406.9V409.1C173.7 409.2 173.8 409.4 173.9 409.6V407.5H174ZM174 289.7V327.7H213.1V289.7H174ZM182.8 174.4H177.3C177.5 174.2 177.7 174.1 178 174H183.1C183 174.1 182.9 174.3 182.8 174.4ZM175.8 174.4H174V175.1C173.9 175.1 173.7 175.2 173.6 175.2V174.4H134.5V212.4C134.4 212.2 134.2 212.1 134.1 211.9V174.5H95V212.5H111.1C110.8 212.6 110.5 212.7 110.2 212.9H95V241.1C94.8 241 94.7 241 94.6 240.9V212.9H73.2C73.1 212.8 73 212.6 72.9 212.5H94.5V174.5H55.4V188C55.3 187.9 55.2 187.9 55 187.8L54.9 187.7V174.4H54.1C54.1 174.3 54.1 174.1 54.1 174H55V171.8C55 171.7 55.1 171.7 55.1 171.6C55.2 171.4 55.3 171.3 55.4 171.1V173.9H94.5V135.9H55.4V137.5C55.3 137.5 55.1 137.6 55 137.6V136H54.8C54.8 135.9 54.7 135.7 54.6 135.6H55V134.7C55.1 134.7 55.2 134.6 55.2 134.4C55.2 134 55.3 133.7 55.5 133.4V135.5H94.6V97.5H55.4V132C55.3 132 55.1 132 55 131.9V97.6H15.9V110C15.8 110.2 15.6 110.3 15.5 110.4V97.6H0.1C0.1 97.5 0 97.3 0 97.2V97.1H15.5V84C15.6 83.9 15.8 83.9 15.9 83.8V97.2H55V59.2H21.9C21.9 59.2 21.9 59.1 21.8 59.1C21.8 59 21.7 58.9 21.7 58.8H55V54.5C55.2 54.9 55.2 55.4 55.4 55.8V58.8H60.9C61 58.9 61.1 58.9 61.3 59C61.5 59.1 61.7 59.2 61.9 59.3H55.4V97.3H94.5V67.1C94.6 67 94.7 66.9 94.8 66.9C94.8 66.9 94.9 66.9 95 66.9V97.2H134V91.3C134.2 91.3 134.3 91.2 134.4 91.2V97.3H168.2C168.2 97.4 168.3 97.6 168.3 97.7H134.4V121C134.2 121.2 134.1 121.4 134 121.5V97.6H95V135.6H134V134.3C134.1 134.3 134.3 134.3 134.4 134.2V135.6H139.7C139.9 135.7 140.1 135.9 140.3 136H134.4V174H173.5V164.2C173.6 164.1 173.8 164.1 173.9 164V174H175.8V174.1C175.9 174.2 175.8 174.3 175.8 174.4ZM174 136H192.2C192.2 135.9 192.1 135.8 192 135.7C191.9 135.7 191.9 135.6 191.9 135.5H174V119C173.9 119 173.7 119.1 173.6 119.1V135.5H163.7C163.7 135.6 163.7 135.8 163.8 135.9H173.7V163.3C173.8 163.2 174 163.1 174.1 163V136H174ZM194.7 97.6H184.1C184.1 97.4 184 97.3 183.9 97.2H193.8C194.2 97.3 194.5 97.4 194.7 97.6ZM174 107.9C173.9 107.9 173.9 107.8 173.8 107.8L173.6 107.7V111.4C173.7 111.4 173.9 111.3 174 111.3V107.9ZM174 59.2H185C184.7 58.9 184.4 58.8 184 58.8C183.5 58.8 182.9 58.8 182.4 58.7H177.6C177.1 58.8 176.6 59 176.2 58.7H174V57.5C173.8 57.4 173.7 57.3 173.6 57.2V58.7H166.7C166.7 58.8 166.6 59 166.6 59.1H173.6V64.2C173.7 64.2 173.9 64.2 174 64.2V59.2ZM174 68.1C173.9 68 173.7 67.9 173.6 67.8V69.4C173.7 69.3 173.9 69.3 174 69.2V68.1ZM174 70.4C173.8 70.4 173.7 70.5 173.6 70.6V87.9C173.7 87.9 173.9 87.9 174 87.9V70.4ZM174 88.3C173.8 88.3 173.7 88.1 173.6 87.9V89.1C173.7 89.2 173.8 89.2 173.8 89.3C173.9 89.3 173.9 89.4 174 89.4V88.3ZM174 51.2V52.4C173.9 52.2 173.9 51.6 174 51.2ZM174 53.4C173.8 53.2 173.6 53.1 173.6 52.9V54.5C173.7 54.5 173.9 54.5 174 54.4V53.4ZM158.2 251.3H156C156.4 251.1 156.8 250.9 157.2 250.9C157.2 250.9 157.2 250.9 157.3 250.9H157.4C157.6 250.9 157.8 251 158 251.1C158 251 158.1 251.1 158.2 251.3ZM134.5 257.6V259.9C134.4 259.8 134.2 259.8 134.1 259.7V257.4C134.2 257.4 134.3 257.5 134.5 257.6ZM139.8 212.8C139.8 212.7 139.7 212.5 139.7 212.4H134.4C134.5 212.5 134.6 212.7 134.8 212.8H139.8ZM134.5 227.2C134.4 227.2 134.2 227.3 134.1 227.3V229C134.3 228.9 134.4 228.9 134.5 228.8V227.2ZM134.5 64.2C134.3 64.6 134.2 65.1 134.1 65.5V82.5C134.1 82.5 134.2 82.4 134.3 82.4C134.4 82.4 134.4 82.4 134.5 82.4V64.2ZM134.5 82.7C134.5 82.7 134.4 82.7 134.5 82.7C134.3 82.7 134.2 82.7 134.2 82.7C134.1 82.7 134.1 82.6 134.1 82.6V85.5C134.2 85.5 134.4 85.4 134.5 85.4C134.5 85.4 134.5 85.4 134.6 85.4V82.7H134.5ZM134.5 34.5V40.9C134.3 40.9 134.2 41 134.1 41V34.6C134.2 34.5 134.3 34.5 134.5 34.5ZM134.5 42.4V51C134.4 51 134.2 51 134.1 51V42.7C134.2 42.6 134.3 42.5 134.5 42.4ZM134.5 51.3L134.1 51.4V54.5H134.2C134.3 54.5 134.4 54.5 134.6 54.5V51.3H134.5ZM131.2 251.3H123.6C123.5 251.2 123.3 251 123.2 250.9H131.5C131.4 251 131.3 251.1 131.2 251.3ZM121.2 212.8C121.3 212.6 121.3 212.5 121.4 212.4H117.2L117.3 212.5C117.4 212.6 117.5 212.7 117.5 212.8H121.2ZM134 136H95V174H134V136ZM134 133.1C134.1 132.8 134.1 132.6 134.1 132.2C134.1 131.8 134 131.4 134 130.9V133.1ZM125.5 59.2C125.4 59.2 125.4 59.2 125.5 59.2C125.3 59.1 125.1 59 125 58.9L125.1 58.8H125V58.7H106.7C106.5 58.8 106.3 59 106.2 59.1H123.6C124 58.8 124.5 58.8 125 58.7C125 58.7 125 58.7 125 58.8C124.8 59 124.6 59 124.4 59.1H125.5V59.2ZM70.5 212.8C70.4 212.7 70.3 212.5 70.2 212.4H67.6C67.7 212.5 67.8 212.7 67.9 212.8H70.5ZM55.4 188.4C55.3 188.7 55.2 188.9 55.1 189.1C55 189.3 55 189.6 55.1 189.8C55.2 190.1 55.3 190.4 55.4 190.6V188.4ZM55.4 192.1V192.2V192.1ZM55.4 146.8C55.3 146.8 55.2 146.8 55 146.7H54.9V149.2C54.9 149.2 54.9 149.2 54.9 149.3C55 149.5 55.2 149.6 55.3 149.8V146.8H55.4ZM15.9 68.2C15.7 68.3 15.6 68.4 15.5 68.5V79.3H15.6C15.7 79.2 15.8 79.2 15.9 79.1V68.2ZM55 53.3V52.6C55 52.7 55.1 52.7 55.1 52.8C55.2 52.9 55.1 53.1 55 53.3Z" fill="#3685FB" fill-opacity="0.3"/>
<path fill-rule="evenodd" clip-rule="evenodd" d="M292.6 395.9C292.5 395.9 292.3 395.9 292.2 395.9V394.2H292.6V395.9ZM253.1 395H252.7V393H253.1V395ZM252.6 395.8H253V396.5H252.6V395.8ZM292.2 396.7C292.3 396.7 292.5 396.7 292.6 396.7V397.4C292.5 397.4 292.3 397.4 292.2 397.4V396.7ZM306.8 366.5H306C305.9 366.4 305.9 366.2 305.8 366.1H306.7C306.7 366.2 306.8 366.3 306.8 366.5ZM292.6 368.3V369.1H292.3L292.1 369.5V368.2L292.2 368.3H292.6ZM292.6 388V388.8H292.3L292.2 390.8V387.9L292.6 388ZM292.6 397.8V402.2H292.2V397.8C292.3 397.8 292.4 397.8 292.6 397.8ZM298.3 328.1H297.5V327.7H298.3V328.1ZM296.1 328.1H295.3V327.7H296.1V328.1ZM292.6 335.3V336.1H292.2V335.3H292.6ZM292.6 349.5V350.3H292.2V349.5H292.6ZM292.6 350.4V350.8L292.2 351V350.6L292.6 350.4ZM292.6 351.1V351.7L292.2 352.1V351.5L292.6 351.1ZM290.9 366.5H290.4L290 366H290.5L290.9 366.5ZM281.4 366.5H280.6C280.6 366.4 280.6 366.2 280.6 366.1H281.4C281.4 366.2 281.4 366.3 281.4 366.5ZM276.9 366.5H276.3L276.8 366.1H277.4L276.9 366.5ZM271.8 366.5H271C271 366.4 270.9 366.2 270.9 366.1H271.7C271.7 366.2 271.8 366.3 271.8 366.5ZM253.1 369.5V370.3H252.7V369.5H253.1ZM253.1 371.8V372.2L252.7 372.4V372L253.1 371.8ZM253.1 374.7V375.3L252.7 375.7V375.1L253.1 374.7ZM253.1 389V389.8H252.7V389H253.1ZM253.1 397V402.9C252.9 402.9 252.8 402.9 252.7 402.9V397H253.1ZM253.1 340.2V342.5C252.9 343.2 252.8 343.9 252.7 344.7V341.3C252.8 340.9 252.9 340.6 253.1 340.2ZM253.1 350.7V351.5H252.7V349.2C252.7 349.7 252.8 350.1 252.9 350.7H253.1ZM253.1 357.4V357.9L252.7 358.2V357.7L253.1 357.4ZM253.1 362.7V363.4L252.7 364V363.3L253.1 362.7ZM250.6 366.5H250.1L250.5 366.1H251L250.6 366.5ZM246.7 366.5H245.9C245.9 366.4 245.9 366.2 245.9 366.1H246.7C246.8 366.2 246.7 366.3 246.7 366.5ZM240.6 366.5H239.9L240.5 366.1H241.2L240.6 366.5Z" fill="#3685FB" fill-opacity="0.3"/>
<path fill-rule="evenodd" clip-rule="evenodd" d="M252.7 354C252.7 354 252.8 353.9 252.7 354C252.8 353.9 252.8 353.8 252.9 353.8C253 353.7 253 353.7 253.1 353.7V353.2C253 353.2 253 353.2 252.9 353.2C252.8 353.2 252.8 353.2 252.7 353.3V354.2C252.7 354.1 252.7 354 252.7 354Z" fill="#3685FB" fill-opacity="0.3"/>
<path fill-rule="evenodd" clip-rule="evenodd" d="M256.5 366.5C256.6 366.4 256.7 366.3 256.6 366.1C256.6 366.1 256.6 366 256.5 366H256.2C256 366.1 255.8 366.2 255.6 366.4C255.6 366.4 255.6 366.4 255.5 366.5H256.5Z" fill="#3685FB" fill-opacity="0.3"/>
<path fill-rule="evenodd" clip-rule="evenodd" d="M252.6 383.8L252.7 383.7C252.8 383.6 252.9 383.4 253 383.3V382.4C252.9 382.5 252.7 382.7 252.6 382.9V383.8Z" fill="#3685FB" fill-opacity="0.3"/>
<path fill-rule="evenodd" clip-rule="evenodd" d="M253.1 385.8L253 385.9C252.9 386 252.8 386.1 252.8 386.3C252.7 386.4 252.6 386.8 252.8 386.8C252.9 386.8 253 386.7 253.1 386.6V385.8Z" fill="#3685FB" fill-opacity="0.3"/>
<path fill-rule="evenodd" clip-rule="evenodd" d="M286.6 366.4C286.7 366.2 286.8 366.1 286.9 366H286.2V366.1C286.2 366.2 286.2 366.3 286.2 366.4H286.6C286.5 366.5 286.6 366.4 286.6 366.4Z" fill="#3685FB" fill-opacity="0.3"/>
<path fill-rule="evenodd" clip-rule="evenodd" d="M292.6 385.7C292.5 385.9 292.4 386.2 292.3 386.4C292.3 386.6 292.2 386.8 292.5 386.8H292.6V385.7Z" fill="#3685FB" fill-opacity="0.3"/>
<path fill-rule="evenodd" clip-rule="evenodd" d="M107 366H107.4V366.2C107.4 366.5 107 366.4 107 366.2V366ZM72.4 404.9H71.6C71.6 404.8 71.6 404.7 71.8 404.7L72.2 404.6C72.4 404.5 72.5 404.8 72.4 404.9ZM55.4 405.4V405.8C55.3 405.7 55.3 405.4 55.4 405.4ZM73.2 404.5H74L73.9 404.6L73.5 404.7C73.4 404.7 73.3 404.7 73.3 404.6C73.2 404.5 73.2 404.5 73.2 404.5ZM52.8 404.9H52.1C52.1 404.8 52.2 404.8 52.3 404.8L52.8 404.9ZM51.2 404.9H51L50.7 404.8C50.5 404.8 50.5 404.5 50.6 404.4H50.9L51.2 404.5C51.3 404.6 51.4 404.8 51.2 404.9ZM49.3 404.5H49.7C49.7 404.5 49.6 404.6 49.5 404.6C49.4 404.5 49.3 404.5 49.3 404.5ZM15.9 355.7V355.9V355.8V355.7ZM15.9 356.8V357.3H15.8V357C15.8 356.9 15.8 356.9 15.9 356.8ZM15.9 363.4V364.1C15.9 364.1 15.9 364 15.8 364V363.6C15.8 363.5 15.9 363.4 15.9 363.4ZM55 315V314.6H55.2C55.5 314.6 55.5 315 55.3 315H55Z" fill="#3685FB" fill-opacity="0.3"/>
<path fill-rule="evenodd" clip-rule="evenodd" d="M55.4 317.9C55.3 317.9 55.1 317.9 55 318V318.8C55.1 318.8 55.3 318.8 55.4 318.7V317.9ZM35 327.6C35 327.7 35.1 327.7 35.1 327.8C35.2 327.7 35.3 327.7 35.4 327.6H35ZM104 366.5H103.2C103.2 366.4 103.2 366.2 103.3 366.1H104.1C104.1 366.2 104 366.3 104 366.5ZM95 385.7V387C94.9 387.1 94.8 387.2 94.8 387.3C94.7 387.2 94.7 387.1 94.6 387.1V386.3C94.7 386.1 94.8 385.9 95 385.7ZM95 333.3V334.6C94.9 334.4 94.7 334.2 94.6 334V333.2C94.7 333.1 94.7 333.1 94.8 333C94.8 333.1 94.9 333.2 95 333.3ZM55.4 401.5V402.3C55.3 402.3 55.1 402.3 55 402.2V401.4C55.1 401.5 55.3 401.5 55.4 401.5ZM88.2 327.6H88.6C88.6 327.7 88.5 327.7 88.5 327.8C88.4 327.8 88.3 327.7 88.2 327.6ZM20.3 366.5H19.5C19.5 366.4 19.5 366.2 19.4 366.1H20.2C20.3 366.2 20.3 366.3 20.3 366.5Z" fill="#3685FB" fill-opacity="0.3"/>
<path fill-rule="evenodd" clip-rule="evenodd" d="M101.5 366.5H101.1V366.4L101.2 366H101.6L101.5 366.5ZM95 382.6V382.8L94.8 383.1C94.7 383.2 94.7 383.2 94.6 383.2V382.7L94.7 382.6C94.7 382.4 94.9 382.5 95 382.6ZM95 337.7V338.2C95 338.1 94.9 338.1 94.9 338C94.7 337.9 94.8 337.7 95 337.7ZM84.7 327.6H85.3C85.3 327.7 85.2 327.9 85 327.8C84.8 327.7 84.8 327.7 84.7 327.6ZM22.5 366.5H22.1V366.2C22.1 366.1 22.1 366 22.2 366H22.5L22.6 366.1C22.4 366.3 22.5 366.4 22.5 366.5ZM38.2 327.6H38.9C38.8 327.7 38.7 327.8 38.6 327.8C38.5 327.8 38.5 327.9 38.4 327.8C38.1 327.9 38.1 327.7 38.2 327.6ZM55 320.9V320.5H55.2C55.5 320.5 55.5 320.9 55.3 320.9C55.2 320.9 55.1 320.9 55 320.9Z" fill="#3685FB" fill-opacity="0.3"/>
<path fill-rule="evenodd" clip-rule="evenodd" d="M55 340.5L55.4 338.6V335.8L55 337.7V340.5ZM57.8 328.1L57.9 327.7H57.3L57.2 328.1H57.8ZM61.5 327.6V328H66.4L66.3 327.6H61.5ZM94.5 356.4L94.9 356.5V355.9L94.5 355.8V356.4ZM95 359.8H94.6V364.5L95 364.4V359.8ZM72.5 366C72.4 366.2 72.3 366.3 72.2 366.4H86L87.9 366H72.5ZM62.9 404.5L62.8 404.9H63.4L63.5 404.5H62.9ZM62.1 404.9V404.5H60L60.1 404.9H62.1ZM55.4 370.6C55.2 370.5 55.1 370.4 55 370.3V382.5L55.4 384.4V370.6ZM40.3 366.5L38.4 366.1H35.6L37.5 366.5H40.3ZM15.9 360.9L15.5 360.8V361.4L15.9 361.5V360.9ZM15.5 360.4H15.9V358.7L15.5 358.8V360.4Z" fill="#3685FB" fill-opacity="0.3"/>
<path fill-rule="evenodd" clip-rule="evenodd" d="M28.1 327.6L28.3 328H30.1L29.7 327.6H28.1ZM33.2 328.1L32.1 327.7H30.4L31.5 328.1H33.2ZM95 391.6V394L94.6 393.8V390.4L95 391.6ZM95.2 328.1H95V328.7L94.6 329.8V328.1L94.8 327.6L94.4 328H90.5L91.6 327.6H94.6V326.4L95 326.2V327.5H95.4L95.2 328.1Z" fill="#3685FB" fill-opacity="0.3"/>
<path fill-rule="evenodd" clip-rule="evenodd" d="M55.4 351.3L55 351V357L55.4 357.7V351.3ZM55.4 357.8L55 357.9V362.3L55.4 362.4V357.8ZM55.4 362.5L55 363.2V366H53.2L52.9 366.4H55V369.1L55.4 368.8V366.4H59.3L59.4 366.3V366.4H64V366.3L64.1 366.4H70.5L70.2 366H55.4V362.5Z" fill="#3685FB" fill-opacity="0.3"/>
<path fill-rule="evenodd" clip-rule="evenodd" d="M55.4 278.9C55.3 278.8 55.1 278.8 55 278.7V279.4C55.1 279.5 55.3 279.5 55.4 279.6V278.9ZM55 262.9C55.1 262.9 55.2 262.9 55.3 262.9H55.4V262.2C55.3 262.2 55.1 262.2 55 262.2V262.9ZM55.4 256.8C55.3 256.8 55.1 256.8 55 256.9V257.6C55.1 257.6 55.1 257.6 55.2 257.6C55.1 257.7 55.1 257.8 55 257.9V258.9C55.2 258.8 55.3 258.6 55.4 258.4V256.8ZM46.5 251.3C46.7 251.1 46.8 251 46.9 250.9H46L45.9 251C45.8 251.1 45.6 251.2 45.5 251.3H46.5ZM49.8 250.8C50.1 251 50.5 251.2 50.8 251.2H52.1C52.4 251.1 52.7 251 52.9 250.8H49.8ZM55 250.1C55.1 250.1 55.3 250.2 55.4 250.3V249.6C55.2 249.5 55.1 249.5 55 249.5V250.1ZM56.5 250.8C56.8 250.9 57.1 251.1 57.4 251.2H59.6C59.8 251.1 59.9 250.9 60 250.8H59C58.8 250.9 58.5 250.9 58.2 250.8H56.5ZM55.4 239C55.3 239 55.1 239 55 239V239.7C55.2 239.7 55.3 239.7 55.4 239.6V239ZM18.5 250.8C18.3 250.9 18.2 251.1 18 251.2H19C19.2 251 19.4 250.9 19.7 250.8H18.5ZM15.9 255.4C15.8 255.8 15.6 256.2 15.5 256.6V258.2C15.7 257.9 15.8 257.6 15.9 257.2V255.4ZM55.4 246C55.3 246 55.2 245.9 55.2 245.9C55.1 245.9 55.1 245.8 55 245.8V246.5C55.1 246.6 55.3 246.6 55.4 246.7V246ZM44.1 251.3C43.8 251.2 43.5 251 43.2 250.9H41.9C42 251 42.2 251.1 42.3 251.2C42.4 251.3 42.5 251.3 42.6 251.4H44.1V251.3ZM35.6 250.8C35.5 250.9 35.4 251 35.4 251.1C35.4 251.2 35.3 251.2 35.3 251.3H36.1C36.2 251.1 36.4 251 36.5 250.9H35.6V250.8ZM15.9 265.7C15.8 265.8 15.6 265.8 15.5 265.8V266.4C15.7 266.4 15.8 266.4 15.9 266.3V265.7ZM15.5 288.6C15.6 289 15.7 289.4 15.9 289.9V289.7H16.5C16.4 289.5 16.4 289.4 16.3 289.3H15.9V287.5C15.8 286.9 15.7 286.3 15.5 285.5V288.6ZM41.5 289.7H39.7C39.6 289.5 39.6 289.4 39.5 289.3H40.8C41.1 289.4 41.3 289.5 41.5 289.7ZM23.9 289.7H21.7C21.9 289.5 22.2 289.4 22.4 289.3H24.1C24.1 289.3 24.1 289.5 23.9 289.7ZM15.9 294.2V295.4C15.8 295.7 15.6 296 15.5 296.4V294.8C15.6 294.6 15.8 294.4 15.9 294.2Z" fill="#3685FB" fill-opacity="0.3"/>
<path fill-rule="evenodd" clip-rule="evenodd" d="M39.9 251.3C39.9 251.2 40 251 40.1 250.9H40.6V251C40.5 251.1 40.5 251.2 40.4 251.4H39.9V251.3Z" fill="#3685FB" fill-opacity="0.3"/>
<path fill-rule="evenodd" clip-rule="evenodd" d="M55 286.4C55.1 286.4 55.3 286.5 55.4 286.5V287C55.3 287 55.1 287 55 286.9V286.4Z" fill="#3685FB" fill-opacity="0.3"/>
<path fill-rule="evenodd" clip-rule="evenodd" d="M55 282.6C55.1 282.6 55.3 282.7 55.4 282.7V283.2C55.3 283.2 55.1 283.1 55 283.1V282.6Z" fill="#3685FB" fill-opacity="0.3"/>
<path fill-rule="evenodd" clip-rule="evenodd" d="M55.4 273.3C55.2 273.1 55.1 272.8 55 272.6V271.6C55.1 271.9 55.3 272.2 55.4 272.5V273.3Z" fill="#3685FB" fill-opacity="0.3"/>
<path fill-rule="evenodd" clip-rule="evenodd" d="M55 278.7C55.1 278.8 55.3 278.8 55.4 278.9V279.4C55.3 279.3 55.1 279.3 55 279.2V278.7Z" fill="#3685FB" fill-opacity="0.3"/>
<path fill-rule="evenodd" clip-rule="evenodd" d="M15.9 271.2C15.7 271 15.6 270.8 15.5 270.5V269.7C15.6 269.9 15.8 270.2 15.9 270.4V271.2Z" fill="#3685FB" fill-opacity="0.3"/>
<path fill-rule="evenodd" clip-rule="evenodd" d="M15.9 281.4C15.8 281.3 15.6 281.2 15.5 281.1V280.5C15.6 280.6 15.8 280.7 15.9 280.9V281.4Z" fill="#3685FB" fill-opacity="0.3"/>
<path fill-rule="evenodd" clip-rule="evenodd" d="M22.7 289.2C22.8 289.3 22.8 289.3 22.7 289.4C22.6 289.5 22.4 289.4 22.3 289.4C22.2 289.3 22.1 289.3 21.9 289.2H22.7Z" fill="#3685FB" fill-opacity="0.3"/>
<path fill-rule="evenodd" clip-rule="evenodd" d="M15.9 259.5C15.8 259.6 15.6 259.7 15.5 259.9V259.3C15.7 259.2 15.8 259.1 15.9 258.9V259.5Z" fill="#3685FB" fill-opacity="0.3"/>
<path fill-rule="evenodd" clip-rule="evenodd" d="M55.4 290.4C55.3 290.4 55.3 290.3 55.3 290.3C55.3 290.3 55.3 290.3 55.4 290.3V290.4Z" fill="#3685FB" fill-opacity="0.3"/>
<path fill-rule="evenodd" clip-rule="evenodd" d="M55 249.6C55.1 249.7 55.3 249.7 55.4 249.8V250.3C55.2 250.2 55.1 250.2 55 250.1V249.6Z" fill="#3685FB" fill-opacity="0.3"/>
<path fill-rule="evenodd" clip-rule="evenodd" d="M55.4 241.8C55.3 241.7 55.3 241.7 55.3 241.6H55.4V241.8Z" fill="#3685FB" fill-opacity="0.3"/>
<path fill-rule="evenodd" clip-rule="evenodd" d="M55 245.4C55.1 245.4 55.1 245.5 55.2 245.5C55.2 245.5 55.3 245.6 55.5 245.7V246.2C55.3 246.1 55.1 246 55.1 245.9V245.4H55Z" fill="#3685FB" fill-opacity="0.3"/>
<path fill-rule="evenodd" clip-rule="evenodd" d="M15.9 262.6C15.8 262.6 15.7 262.5 15.7 262.4C15.7 262.3 15.8 262.3 15.9 262.3V262.6Z" fill="#3685FB" fill-opacity="0.3"/>
<path fill-rule="evenodd" clip-rule="evenodd" d="M15.5 289.1C15.7 289.3 16 289.5 16.2 289.7H16V290.1C15.9 290 15.7 289.9 15.6 289.7H15.5C15.4 289.6 15.3 289.6 15.2 289.5C15.1 289.4 15 289.4 14.9 289.3H15.6V289.1H15.5Z" fill="#3685FB" fill-opacity="0.3"/>
<path fill-rule="evenodd" clip-rule="evenodd" d="M206.4 212.4C207.1 212.6 207.9 212.8 207.9 212.6C207.9 212.6 207.7 212.5 207.5 212.4H212.2C212.8 212.5 213.5 212.7 214.1 212.8H213.5V220.9C213.4 220.8 213.2 220.6 213.1 220.5V212.8H191.2L191.1 212.7C191 212.6 190.9 212.6 190.8 212.6C190.7 212.6 190.6 212.6 190.5 212.6C190.4 212.6 190.1 212.7 190 212.8C190 212.8 189.9 212.8 189.9 212.9H188.7C188.5 212.8 188.4 212.6 188.2 212.5H192.2H192.3C192.3 212.5 192.3 212.5 192.4 212.5H206.4V212.4Z" fill="#3685FB" fill-opacity="0.3"/>
<path fill-rule="evenodd" clip-rule="evenodd" d="M226.2 212.8C226.3 212.7 226.4 212.5 226.5 212.4H229C228.9 212.5 228.9 212.7 228.8 212.8H226.2ZM229.2 212.8C229.3 212.7 229.3 212.5 229.4 212.4H231C231 212.5 230.9 212.5 230.9 212.6C230.9 212.7 230.9 212.8 230.8 212.9H229.2V212.8ZM213.5 178C213.3 177.6 213.2 177.2 213.2 176.8C213.1 176.3 213.2 175.8 213.3 175.3C213.4 175.5 213.4 175.6 213.5 175.8V175.9V178ZM213.5 174.9C213.5 174.8 213.5 174.8 213.5 174.8V174.9ZM213.7 174.4C213.8 174.2 213.9 174.1 214 174H215.7C215.6 174.1 215.5 174.3 215.4 174.4H213.7ZM237.6 212.4C237.6 212.5 237.6 212.6 237.7 212.6C237.8 212.6 237.8 212.4 237.9 212.4H238.7C238.6 212.5 238.6 212.7 238.5 212.8H236.2C236.2 212.7 236.2 212.5 236.1 212.4H237.6ZM235.8 212.8H234.1C234.1 212.7 234 212.6 234 212.6L234.1 212.5C234.1 212.4 234 212.4 234 212.4H235.8C235.8 212.4 235.8 212.4 235.8 212.5C235.8 212.6 235.8 212.7 235.8 212.8ZM232.4 212.8H231.4C231.4 212.7 231.4 212.7 231.4 212.6C231.4 212.5 231.5 212.4 231.5 212.3H233.2H233.1C233 212.3 232.9 212.4 232.8 212.4C232.6 212.6 232.5 212.6 232.4 212.8Z" fill="#3685FB" fill-opacity="0.3"/>
<path fill-rule="evenodd" clip-rule="evenodd" d="M233.2 212.8C233.3 212.8 233.5 212.7 233.7 212.7V212.8H233.2Z" fill="#3685FB" fill-opacity="0.3"/>
<path fill-rule="evenodd" clip-rule="evenodd" d="M213.1 221.5C213.3 221.6 213.4 221.8 213.5 221.9V226.5C213.4 226.4 213.2 226.1 213.1 226.2V221.5ZM213.5 233.7C213.4 233.6 213.2 233.6 213.1 233.5V226.4C213.1 226.5 213.2 226.7 213.2 226.7C213.3 226.9 213.4 227.1 213.5 227.4V233.7Z" fill="#3685FB" fill-opacity="0.3"/>
<path fill-rule="evenodd" clip-rule="evenodd" d="M183.9 212.8H180.5C180.6 212.7 180.7 212.5 180.7 212.4H184L183.9 212.8ZM179.9 212.8H177.9C178 212.7 178 212.5 178.1 212.4H180.1C180.1 212.5 180 212.7 179.9 212.8Z" fill="#3685FB" fill-opacity="0.3"/>
<path fill-rule="evenodd" clip-rule="evenodd" d="M173.8 244.6C173.6 244.4 173.6 244.2 173.8 244C173.9 244 173.9 243.9 174 243.9V244.8C174 244.7 173.9 244.7 173.8 244.6ZM213.1 242C213.2 242 213.4 242.1 213.5 242.1V243C213.4 243 213.2 242.9 213.1 242.9V242ZM252.6 242C252.7 242 252.9 242 253 241.9V242.8C252.9 242.8 252.7 242.8 252.6 242.9V242ZM253.1 257.9V258.8C253 258.9 252.8 258.9 252.7 259V258.1C252.8 258 252.9 257.9 253.1 257.9ZM232 251.3H230.7C230.4 251.1 230.2 251 229.9 250.9H231.6C231.7 250.9 231.8 251.1 232 251.3ZM225.3 251.3H223.2C223.5 251.2 223.8 251 224.2 250.9H226.6C226.1 250.9 225.7 251.1 225.3 251.3ZM215.1 251.3H213.8C213.5 251.1 213.3 251 213 250.9H213.2V250C213.3 250.1 213.5 250.1 213.6 250.2V250.9H214.7C214.8 250.9 214.9 251.1 215.1 251.3ZM208.3 251.3H206.2C206.5 251.2 206.8 251 207.2 250.9H209.6C209.2 250.9 208.8 251.1 208.3 251.3ZM198.1 251.3H197.7C197.9 251.2 198 251.2 198.1 251.3Z" fill="#3685FB" fill-opacity="0.3"/>
<path fill-rule="evenodd" clip-rule="evenodd" d="M74.5 20.8V20.4H74V20.8H74.5ZM74.8 20.3L74.9 20.7H75.2L75.1 20.3H74.8ZM95 32.9V33.4H94.6V32.9H95ZM95 37.3V38C94.9 38.3 94.7 38.6 94.6 38.9V38.3C94.7 37.9 94.8 37.6 95 37.3ZM95 38.8C94.9 39 94.7 39.3 94.6 39.5V40.5C94.8 40.3 94.9 40.1 95 39.9V38.8ZM90.3 20.8H89.7C89.6 20.7 89.6 20.5 89.5 20.4H90.1C90.1 20.5 90.2 20.6 90.3 20.8ZM84.5 20.8H84.2C84.2 20.7 84.1 20.5 84.1 20.4H84.4C84.4 20.5 84.5 20.6 84.5 20.8ZM77.4 20.8H77L76.7 20.4H77L77.4 20.8ZM76.6 20.8H76.1C76.1 20.7 76.1 20.5 76.1 20.4H76.6C76.6 20.5 76.6 20.6 76.6 20.8ZM73 20.8H72.5V20.4H73V20.8ZM70.8 20.8H70.5C70.5 20.7 70.6 20.5 70.6 20.4H71C70.9 20.5 70.9 20.6 70.8 20.8ZM65.8 20.8H65.2C65.3 20.7 65.4 20.5 65.5 20.4H66.1C66 20.5 65.9 20.6 65.8 20.8Z" fill="#3685FB" fill-opacity="0.3"/>
<path fill-rule="evenodd" clip-rule="evenodd" d="M85.6 20.8C85.6 20.7 85.7 20.6 85.7 20.6C85.7 20.5 85.7 20.4 85.6 20.4C85.5 20.4 85.5 20.4 85.4 20.4C85.4 20.4 85.3 20.6 85.2 20.6V20.7H85.6V20.8Z" fill="#3685FB" fill-opacity="0.3"/>
<path fill-rule="evenodd" clip-rule="evenodd" d="M80.7 20.8C80.7 20.8 80.7 20.7 80.6 20.7C80.5 20.7 80.5 20.6 80.4 20.7L80.3 20.8H80.7Z" fill="#3685FB" fill-opacity="0.3"/>
<path fill-rule="evenodd" clip-rule="evenodd" d="M94.5 52.6C94.6 52.5 94.8 52.5 94.9 52.4V53.3C94.8 53.4 94.6 53.4 94.5 53.5V52.6Z" fill="#3685FB" fill-opacity="0.3"/>
<path fill-rule="evenodd" clip-rule="evenodd" d="M55.4 49.6C55.3 49.6 55.1 49.5 55 49.5V48.6C55.1 48.7 55.3 48.7 55.4 48.7V49.6Z" fill="#3685FB" fill-opacity="0.3"/>
</g>
<defs>
<clipPath id="clip0_1_330">
<rect width="675.2" height="423.3" fill="white"/>
</clipPath>
</defs>
</svg>
